<svg xmlns="http://www.w3.org/2000/svg" viewBox="0 0 841.9 595.3">
    <style>
        .bg-logo   { fill: #1995dc; }
        .text-logo {
            font-family:&#39;MontserratAlternates-Medium&#39;;
            font-size: 86.2849px;
        }
    </style>
    <text transform="matrix(1 0 0 1 179.1759 429.4346)" class="bg-logo text-logo">
        {legaltech}
    </text>
    <path class="bg-logo" d="M185.3 230.7c0-13.6 10.9-24.1 25.4-24.1 14.5 0 25.4 10.6 25.4 24.1 0 13.6-10.9 24.1-25.4 24.1C196.2 254.8 185.3 244.2 185.3 230.7zM210.6 284.2c14.5 0 25.4 10.6 25.4 24.1s-10.9 24.1-25.4 24.1c-14.4 0-25.4-10.6-25.4-24.1S196.2 284.2 210.6 284.2z"/>
    <path class="bg-logo" d="M547.9 145.3c-46.9 0-85.4 27.5-98 66.4v-39.7c0-13.2-10.7-23.9-23.9-23.9h-43.6c-0.2 0-0.4 0.2-0.4 0.4v77.4c0 0.1-0.1 0.3-0.2 0.3 -0.2 0.1-0.4 0-0.5-0.1l-46.6-67.7c-4.5-6.5-11.8-10.4-19.7-10.4h-55.7c-0.2 0-0.4 0.2-0.4 0.4v159.2c0 13.2 10.7 24 24 24h43.6c0.2 0 0.4-0.2 0.4-0.4v-77.4c0-0.1 0.1-0.3 0.2-0.3 0.2-0.1 0.4 0 0.5 0.1l46.7 67.7c4.5 6.5 11.8 10.4 19.7 10.4h55.7c0.2 0 0.4-0.2 0.4-0.4v-63.3c12.6 39 51.1 66.4 98 66.4 57.5 0 102.4-41.3 102.4-94.5S605.4 145.3 547.9 145.3zM547.9 269.5c-15.7 0-28.4-12.7-28.4-28.4 0-15.7 12.7-28.4 28.4-28.4 15.7 0 28.4 12.7 28.4 28.4C576.3 256.8 563.6 269.5 547.9 269.5z"/>
</svg>
