<?xml version="1.0" encoding="utf-8"?>
<!-- Generator: Adobe Illustrator 24.1.0, SVG Export Plug-In . SVG Version: 6.00 Build 0)  -->
<svg version="1.1" id="Capa_1" xmlns="http://www.w3.org/2000/svg" xmlns:xlink="http://www.w3.org/1999/xlink" x="0px" y="0px"
	 viewBox="0 0 841.89 595.28" style="enable-background:new 0 0 841.89 595.28;" xml:space="preserve">
<style type="text/css">
	.st0{fill:#2793D1;}
	.st1{font-family:'MontserratAlternates-Medium';}
	.st2{font-size:86.2849px;}
</style>
<text transform="matrix(1 0 0 1 179.1759 429.4346)" class="st0 st1 st2">{legaltech}</text>
<g>
	<path class="st0" d="M185.26,230.68c0-13.57,10.92-24.14,25.37-24.14c14.45,0,25.37,10.57,25.37,24.14
		c0,13.57-10.92,24.14-25.37,24.14C196.18,254.81,185.26,244.24,185.26,230.68z M210.63,284.22c14.45,0,25.37,10.57,25.37,24.14
		s-10.92,24.14-25.37,24.14c-14.45,0-25.37-10.57-25.37-24.14S196.18,284.22,210.63,284.22z"/>
	<path class="st0" d="M547.89,145.33c-46.9,0-85.38,27.46-97.99,66.44v-39.71c0-13.23-10.72-23.95-23.95-23.95h-43.59
		c-0.21,0-0.38,0.17-0.38,0.38v77.44c0,0.14-0.08,0.28-0.21,0.34c-0.17,0.08-0.38,0.03-0.48-0.12l-46.65-67.68
		c-4.47-6.48-11.84-10.36-19.72-10.36h-55.72c-0.21,0-0.38,0.17-0.38,0.38v159.16c0,13.23,10.72,23.95,23.95,23.95h43.59
		c0.21,0,0.38-0.17,0.38-0.38v-77.44c0-0.14,0.08-0.28,0.21-0.34c0.17-0.08,0.38-0.03,0.48,0.12l46.65,67.68
		c4.47,6.48,11.84,10.36,19.72,10.36h55.72c0.21,0,0.38-0.17,0.38-0.38v-63.27c12.62,38.98,51.09,66.44,97.99,66.44
		c57.53,0,102.39-41.31,102.39-94.53S605.42,145.33,547.89,145.33z M547.89,269.52c-15.71,0-28.38-12.67-28.38-28.38
		c0-15.71,12.67-28.38,28.38-28.38c15.71,0,28.38,12.67,28.38,28.38C576.27,256.84,563.6,269.52,547.89,269.52z"/>
</g>
</svg>
